<svg width="26" height="24" viewBox="0 0 26 24" fill="none" xmlns="http://www.w3.org/2000/svg">
<path d="M12.5 21.7499C6.85 21.7499 2.25 17.1499 2.25 11.4999C2.25 5.84988 6.85 1.24988 12.5 1.24988C18.15 1.24988 22.75 5.84988 22.75 11.4999C22.75 17.1499 18.15 21.7499 12.5 21.7499ZM12.5 2.74988C7.67 2.74988 3.75 6.67988 3.75 11.4999C3.75 16.3199 7.67 20.2499 12.5 20.2499C17.33 20.2499 21.25 16.3199 21.25 11.4999C21.25 6.67988 17.33 2.74988 12.5 2.74988Z" fill="#1F1F1F"/>
<path d="M23.0004 22.7498C22.8104 22.7498 22.6204 22.6798 22.4704 22.5298L20.4704 20.5298C20.1804 20.2398 20.1804 19.7598 20.4704 19.4698C20.7604 19.1798 21.2404 19.1798 21.5304 19.4698L23.5304 21.4698C23.8204 21.7598 23.8204 22.2398 23.5304 22.5298C23.3804 22.6798 23.1904 22.7498 23.0004 22.7498Z" fill="#1F1F1F"/>
</svg>
