<svg width="24" height="24" viewBox="0 0 24 24" fill="none" xmlns="http://www.w3.org/2000/svg">
<path d="M11.52 21.7499C6.09599 21.7499 1.67999 17.1499 1.67999 11.4999C1.67999 5.84988 6.09599 1.24988 11.52 1.24988C16.944 1.24988 21.36 5.84988 21.36 11.4999C21.36 17.1499 16.944 21.7499 11.52 21.7499ZM11.52 2.74988C6.88319 2.74988 3.11999 6.67988 3.11999 11.4999C3.11999 16.3199 6.88319 20.2499 11.52 20.2499C16.1568 20.2499 19.92 16.3199 19.92 11.4999C19.92 6.67988 16.1568 2.74988 11.52 2.74988Z" fill="#1F1F1F"/>
<path d="M21.6004 22.7498C21.418 22.7498 21.2356 22.6798 21.0916 22.5298L19.1716 20.5298C18.8932 20.2398 18.8932 19.7598 19.1716 19.4698C19.45 19.1798 19.9108 19.1798 20.1892 19.4698L22.1092 21.4698C22.3876 21.7598 22.3876 22.2398 22.1092 22.5298C21.9652 22.6798 21.7828 22.7498 21.6004 22.7498Z" fill="#1F1F1F"/>
</svg>
